# xmcd
#
# Track frame offsets: 
#        150
#        15618
#        34451
#        46241
#        66196
#        84659
#        97918
#        115413
#        134766
#        151950
#
# Disc length: 2330 seconds
#
# Revision: 1
# Processed by: cddbd v1.5PL3 Copyright (c) Steve Scherf et al.
# Submitted via: ExactAudioCopy v0.90b4
#
DISCID=8409180a
DTITLE=Patricia Conroy - Wild As The Wind
DYEAR=1900
DGENRE=Country
TTITLE0=Don't You Forget (Who You're Talkin' Too)
TTITLE1=Mary On The Dashboard
TTITLE2=Direction Of Love
TTITLE3=Sweet Little Place
TTITLE4=Ready To Fall
TTITLE5=Ain't Nobody Like You
TTITLE6=Your True Love
TTITLE7=Nobody's Fault
TTITLE8=Who's Missing Who
TTITLE9=Wild As The Wind
EXTD=
EXTT0=
EXTT1=
EXTT2=
EXTT3=
EXTT4=
EXTT5=
EXTT6=
EXTT7=
EXTT8=
EXTT9=
PLAYORDER=
